PathFileType	4	(X/Y/Z)	c:/Users/goper/Files/vsCode/490R/osim_files/A06/A06_SSWS_05.trc
DataRate	CameraRate	NumFrames	NumMarkers	Units                	OrigDataRate	OrigDataStartFrame	OrigNumFrames
120.00	120.00	10	36	mm	120.0	631	1261
                Frame#	Time	LPSIS			LASIS			LTH1			LTH2			LTH3			LTH4			LLFE			LMFE			LSH1			LSH2			LSH3			LSH4			LLMAL			LMMAL			LCAL			LMTP5			LTOE			LMTP1			RPSIS			RASIS			RTH1			RTH2			RTH3			RTH4			RLFE			RMFE			RSH1			RSH2			RSH3			RSH4			RLMAL			RMMAL			RCAL			RMTP1			RTOE			RMTP5		
		X1	Y1	Z1	X2	Y2	Z2	X3	Y3	Z3	X4	Y4	Z4	X5	Y5	Z5	X6	Y6	Z6	X7	Y7	Z7	X8	Y8	Z8	X9	Y9	Z9	X10	Y10	Z10	X11	Y11	Z11	X12	Y12	Z12	X13	Y13	Z13	X14	Y14	Z14	X15	Y15	Z15	X16	Y16	Z16	X17	Y17	Z17	X18	Y18	Z18	X19	Y19	Z19	X20	Y20	Z20	X21	Y21	Z21	X22	Y22	Z22	X23	Y23	Z23	X24	Y24	Z24	X25	Y25	Z25	X26	Y26	Z26	X27	Y27	Z27	X28	Y28	Z28	X29	Y29	Z29	X30	Y30	Z30	X31	Y31	Z31	X32	Y32	Z32	X33	Y33	Z33	X34	Y34	Z34	X35	Y35	Z35	X36	Y36	Z36

631	5.25000	859.31226	982.57623	417.78946	671.75000	923.72589	489.94302	661.45874	574.95612	515.33148	642.18378	537.77026	507.70386	600.88379	596.03009	500.96005	593.60480	554.39868	495.27243	597.97369	475.98666	488.34454	608.86493	474.59595	382.63666	645.07098	375.49710	506.24765	633.87756	330.86295	509.55225	585.48547	383.47003	491.73276	582.76666	342.37802	494.03336	618.55823	86.21330	459.38763	602.31372	99.81186	373.87057	682.79919	76.63721	408.99402	498.90826	42.21233	471.13159	461.69006	66.21877	414.26611	487.99808	57.58435	375.25540	859.72180	994.32709	286.63596	684.54016	956.62848	235.97163	853.71143	569.74756	208.27539	857.77435	526.83252	210.47617	792.46747	556.54431	216.28392	805.68988	513.57660	215.51622	861.31177	413.00891	241.22221	858.51538	416.18246	330.91321	995.16406	330.84769	259.28232	1031.18945	299.82718	263.03607	958.11621	282.05560	272.74683	999.80042	257.16592	270.17816	1138.50281	213.61684	257.67627	1123.83630	209.31712	343.29340	1189.94568	244.90613	306.29202	1074.30652	78.38108	341.83124	1056.11951	72.53452	301.22095	1086.49719	81.64158	251.57205
632	5.25833	850.13751	984.39758	418.63733	663.24475	925.53613	488.73529	655.91876	575.75775	515.21448	637.53613	538.23962	507.76474	596.17975	595.72058	500.03470	588.53552	554.25415	494.92667	593.65247	476.18445	488.63614	606.49677	473.95096	382.03085	643.14795	376.38354	505.45520	631.68561	330.81345	509.35077	582.77002	383.54239	492.07840	580.22766	341.64594	494.05243	618.35864	86.34305	459.18182	602.13696	99.74112	373.68579	682.86774	76.86777	408.87854	498.89435	42.29636	470.98032	461.52658	65.84541	414.05588	487.86078	57.29726	375.03595	851.56323	995.99622	287.56885	676.39899	959.31293	236.12160	837.11462	568.82654	208.17212	839.87164	525.83588	210.37070	775.83929	557.69598	215.49515	787.37347	514.14801	215.26161	839.71191	411.89456	240.62253	836.96887	415.11972	330.67056	976.08014	334.12250	258.81940	1012.79700	303.97971	262.45749	941.39673	285.82178	271.77264	983.45447	262.15613	269.78949	1124.99500	221.02658	257.06793	1110.72168	216.37898	342.64941	1176.14807	252.32062	305.62814	1062.38940	84.94994	341.03220	1042.51880	79.21117	301.03281	1074.14185	88.60287	250.89783
633	5.26667	841.04706	986.15314	419.59357	652.83466	927.92639	488.64197	650.56793	576.69507	515.22821	632.34473	539.00684	507.72137	590.47791	595.66644	499.47583	583.50934	554.07202	494.59891	589.97827	476.34238	488.60767	604.06812	473.44989	381.66965	640.63403	376.24625	506.72717	629.07208	330.45480	508.96378	580.20746	382.75616	491.96387	578.12115	341.32642	494.17868	618.11761	86.40648	459.03268	601.91882	99.72925	373.56848	682.60498	76.85319	408.91360	498.79303	42.17364	470.95663	461.36996	65.45824	413.97797	487.72507	57.01947	374.91809	843.37354	997.71454	288.54269	668.93585	961.76794	235.00377	820.58148	568.60278	208.01219	821.95813	525.48291	210.15163	759.00342	559.46405	215.19312	769.22992	515.75604	215.10901	818.24646	411.74359	240.36847	815.64227	414.89529	330.42978	956.57434	337.33353	258.22775	993.95831	308.02921	261.78424	923.08722	288.19421	271.30328	965.88336	265.44873	268.78339	1108.86768	227.63606	256.06406	1094.16919	222.35410	341.40610	1159.05029	260.11328	304.72171	1049.66467	90.03434	340.21436	1031.58264	82.89536	299.99591	1061.21936	93.98149	249.86324
634	5.27500	832.03192	987.92041	420.61267	644.17603	928.68512	487.40115	645.33826	577.39288	515.63177	627.59534	539.46887	508.01746	585.75104	596.07050	499.62198	578.74890	554.35730	494.56860	587.10291	476.02295	488.27695	601.82147	473.07587	381.61090	638.33307	376.40298	506.92307	628.90094	331.69333	510.52682	577.96057	382.44174	492.38562	576.19434	341.04495	494.60275	617.86316	86.47179	458.97064	601.69690	99.76860	373.53992	682.50122	76.93681	408.96021	498.72089	42.00315	471.01083	461.22263	65.08874	413.99115	487.54559	56.75766	374.96243	835.21387	999.52496	289.58835	661.23743	964.25354	234.35846	804.26917	568.89703	207.70569	804.38519	525.72705	209.92139	741.91895	561.25403	215.66090	750.98401	517.02277	214.84952	797.07416	412.36847	240.48666	794.66809	415.41080	330.22504	936.79346	340.37677	257.58798	974.81488	311.89362	261.11377	904.38879	290.70499	270.83652	947.42230	268.54227	268.81146	1090.16138	233.93205	255.02785	1076.25464	228.68437	340.73782	1139.67285	267.81165	303.49786	1034.23706	93.87991	338.75201	1016.36731	87.76955	299.04343	1045.93945	99.13334	249.04930
635	5.28333	823.13483	989.73828	421.63644	634.74585	930.04114	486.60883	640.48010	578.03973	516.02527	623.16284	539.93652	508.51385	580.51086	595.99994	499.75259	574.26202	554.25916	494.80774	583.50830	475.95560	488.66537	598.94745	472.94525	381.93768	636.27710	376.60568	507.21497	627.15973	331.74347	510.81036	575.90948	382.03180	493.08777	574.42316	340.68643	495.31006	617.64795	86.52801	458.96857	601.44849	99.86855	373.61688	682.42255	77.09110	409.00250	498.59491	41.70981	471.12787	461.06665	64.75088	414.03482	487.37695	56.56520	375.01425	827.09149	1001.48596	290.57733	653.43878	966.76898	233.56918	788.02411	569.66223	207.40280	786.78589	526.50140	209.62640	725.89978	564.15405	214.78712	733.36139	519.44257	214.60960	776.29987	413.73999	240.23409	773.89246	416.55423	329.94482	916.79785	343.42758	257.01028	955.21136	315.50519	260.40411	885.08679	293.32135	270.38153	928.61121	272.13379	267.60376	1070.62415	239.29175	253.86008	1056.76086	233.48064	339.41556	1120.10632	274.51917	302.11923	1018.08020	98.07321	337.99377	1000.57483	91.17857	298.66040	1029.56531	103.53697	248.31161
636	5.29167	814.41821	991.65186	422.59747	625.42767	931.31073	485.77954	636.18433	578.45007	516.59821	619.15259	540.36627	509.02774	576.14532	596.09448	500.37201	570.12079	554.09869	495.39029	580.24976	475.76605	489.36090	595.68274	472.94220	382.53568	634.98956	377.39688	507.04410	625.66748	331.88928	511.14490	574.13629	382.52368	494.28177	572.85150	340.38644	496.11539	617.47595	86.59563	459.00473	601.18066	100.02901	373.72513	682.73657	77.65788	408.92828	498.50186	41.56883	471.20923	460.94452	64.48861	414.12805	487.26648	56.48468	375.06775	818.94531	1003.52509	291.48544	645.64575	969.26141	232.86414	771.87897	570.81030	207.01920	769.39502	527.76715	209.29808	709.32715	566.97357	214.95726	715.85272	522.22687	214.21913	755.33130	415.23691	239.96384	753.30005	418.26453	329.66223	896.62958	346.34344	256.42108	935.36169	318.79749	259.66736	865.44098	296.02234	269.90359	909.07117	274.79800	267.66165	1051.66699	243.74580	252.93298	1038.27942	238.09332	338.86728	1100.10291	278.62009	301.27237	1000.32288	102.11435	337.29721	983.28906	95.04298	298.15305	1011.51172	107.61824	247.32841
637	5.30000	806.34698	993.98236	423.21356	616.26520	932.61139	484.97119	632.22900	579.06152	517.17413	616.31104	540.72742	509.53748	571.65845	595.34937	500.91910	566.32843	553.87079	496.25922	577.48169	475.58475	490.18332	591.00488	472.80350	382.99652	633.17346	377.70309	507.32657	624.24487	332.07068	511.46011	571.84644	381.70001	494.73532	571.28900	340.24588	496.94156	617.25281	86.72916	459.05759	600.90167	100.27071	373.88510	682.35278	77.66960	409.01953	498.41861	41.45562	471.31268	460.82928	64.29405	414.21503	487.25317	56.52523	375.07782	810.77942	1005.74249	292.31454	637.86884	971.78259	232.37534	755.93768	572.30780	206.60118	752.15057	529.25220	208.91357	693.33795	570.28259	214.57729	698.55371	525.63239	214.04051	734.76575	417.30087	239.70345	733.07092	420.51804	329.36688	876.42993	349.11899	255.70811	915.51886	321.92017	258.87463	845.49744	298.61630	269.39215	889.10779	277.54904	267.12283	1031.81189	247.08804	251.88271	1018.84454	241.80562	337.69153	1080.48645	282.72211	299.84399	982.03339	105.32090	336.42114	963.45880	98.45111	296.95798	992.28528	110.75795	246.69357
638	5.30833	797.27441	995.60046	424.20486	607.50519	934.52100	484.42776	628.74115	579.59930	517.65857	612.16516	540.70703	510.52792	566.52692	595.99097	502.64813	562.80609	553.62085	497.37598	575.18250	475.39206	491.13727	584.35291	473.21521	382.79129	631.34534	378.00751	507.58621	622.79132	332.32596	511.70798	569.90656	382.00635	495.91626	569.61816	340.14795	497.64758	617.02148	86.86234	459.13028	600.58356	100.52630	374.01645	682.25195	77.96886	409.04343	498.32495	41.34120	471.38568	460.70236	64.13409	414.29770	487.13266	56.50025	375.17197	802.56311	1008.00323	293.10077	629.11157	974.12811	232.53546	740.17731	573.94720	206.07698	735.13666	531.05859	208.47192	677.88330	573.94312	213.51260	681.52271	528.92828	213.64485	714.62616	419.73071	239.49599	713.01660	423.00601	329.02142	856.22375	351.49527	255.05025	895.06128	324.05435	258.17538	825.27490	301.02701	268.84512	868.90576	279.86996	266.53430	1011.58130	249.44736	250.83311	998.67096	244.00035	336.84949	1060.14417	284.68228	298.84290	961.93732	107.74648	335.69730	942.43890	101.46474	296.55212	971.95068	113.13550	245.88951
639	5.31667	788.84253	997.50159	424.84879	598.53693	934.99695	483.41977	625.40436	580.07092	518.08197	609.51276	541.35248	510.90652	565.01471	594.72400	503.45337	560.02441	552.62952	498.70947	572.96606	475.32581	492.01318	582.01953	473.14255	384.84375	629.46027	378.36511	507.77319	621.21051	332.60477	511.90060	568.04724	381.88528	496.49454	568.04272	340.01175	498.29935	616.80701	86.98245	459.19128	600.35309	100.76768	374.11270	681.96033	78.13100	409.11227	498.25009	41.23125	471.47321	460.58011	63.97524	414.39954	486.56262	55.89005	375.61835	794.27600	1010.26001	293.79492	622.51343	976.55859	232.10556	724.55096	575.76184	205.56503	718.38068	533.07990	207.96669	662.35352	577.57526	213.05333	664.81659	532.40851	213.10535	694.88269	422.59244	238.92891	693.61230	425.88687	328.76587	836.28125	353.69104	254.34727	874.80847	325.94867	257.41046	804.66650	303.23511	268.59311	848.44971	281.90781	265.78668	990.73987	250.85670	249.76477	978.34790	245.44237	335.87408	1039.77356	285.84338	297.67688	940.75507	109.48768	334.72177	923.03082	102.05849	295.51398	950.86957	114.74960	245.22627
640	5.32500	780.55066	999.22430	425.38083	590.03986	936.69189	483.09363	622.03839	580.65747	518.29358	606.97046	541.57269	511.40710	562.71088	594.18549	504.86249	557.14990	552.42358	499.78323	571.02527	475.18472	492.83603	577.00275	472.82071	385.68988	627.56458	378.64645	507.97021	619.63403	332.84698	512.08447	565.81116	381.22726	496.79724	566.38306	340.03384	498.96991	616.60052	87.06159	459.24951	600.16992	101.02344	374.21371	681.87750	78.32556	409.15942	498.22318	41.11943	471.57318	460.48138	63.78418	414.51877	486.89731	56.34505	375.35953	786.02576	1012.49774	294.35898	614.48322	978.75269	232.15169	709.19409	577.68573	204.96097	701.93207	535.26947	207.48659	646.94763	581.13318	212.59305	648.28094	535.87189	212.59091	675.30450	425.23279	238.66985	674.35168	428.72174	328.29431	816.04315	355.13058	253.64613	854.49744	327.17816	256.63354	784.49835	305.10428	267.66125	827.75122	283.45755	265.13614	969.97943	251.01350	248.84381	957.55927	245.84975	334.84247	1019.24847	285.62418	296.54181	918.78497	110.22079	334.01666	901.33606	103.08186	294.99948	928.62750	115.31524	244.14655
